<?xml version="1.0" encoding="iso-8859-1"?>
<!-- Generator: Adobe Illustrator 19.0.0, SVG Export Plug-In . SVG Version: 6.00 Build 0)  -->
<svg version="1.1" id="Layer_1" xmlns="http://www.w3.org/2000/svg" xmlns:xlink="http://www.w3.org/1999/xlink" x="0px" y="0px"
	 viewBox="0 0 512 512" style="enable-background:new 0 0 512 512;" xml:space="preserve">
<rect x="15.673" y="39.278" style="fill:#C9E8FA;" width="480.653" height="433.445"/>
<path style="fill:#67BFFF;" d="M0,23.604v464.791h512V23.604H0z M480.653,457.049H31.347V54.951h449.306V457.049z"/>
<rect x="256" y="39.278" style="fill:#B6E0F7;" width="240.327" height="433.445"/>
<polygon style="fill:#0088FF;" points="512,23.604 512,488.396 256,488.396 256,457.049 480.653,457.049 480.653,54.951 256,54.951 
	256,23.604 "/>
<rect y="23.604" style="fill:#C9AD91;" width="512" height="87.761"/>
<rect x="256" y="23.604" style="fill:#B38A65;" width="256" height="87.761"/>
<rect x="397.646" y="23.604" style="fill:#8A6746;" width="114.354" height="87.761"/>
<polygon style="fill:#FD7052;" points="411.031,418.795 100.968,418.795 256,140.8 "/>
<g>
	<rect x="240.327" y="258.926" style="fill:#FFFFFF;" width="31.347" height="71.074"/>
	<rect x="240.327" y="345.401" style="fill:#FFFFFF;" width="31.347" height="25.673"/>
</g>
<polygon style="fill:#FF4F18;" points="256,140.8 411.031,418.795 256,418.795 "/>
<g>
	<rect x="256" y="258.926" style="fill:#D9D8DB;" width="15.673" height="71.074"/>
	<rect x="256" y="345.401" style="fill:#D9D8DB;" width="15.673" height="25.673"/>
</g>
<g>
	<rect x="421.794" y="59.037" style="fill:#FFFFFF;" width="13.932" height="13.932"/>
	<rect x="448.899" y="59.037" style="fill:#FFFFFF;" width="13.932" height="13.932"/>
	<rect x="476.014" y="59.037" style="fill:#FFFFFF;" width="13.932" height="13.932"/>
</g>
<g>
</g>
<g>
</g>
<g>
</g>
<g>
</g>
<g>
</g>
<g>
</g>
<g>
</g>
<g>
</g>
<g>
</g>
<g>
</g>
<g>
</g>
<g>
</g>
<g>
</g>
<g>
</g>
<g>
</g>
</svg>
